<?xml version="1.0" encoding="utf-8"?>
<!-- Generator: Adobe Illustrator 26.3.1, SVG Export Plug-In . SVG Version: 6.00 Build 0)  -->
<svg version="1.1" id="Calque_1" xmlns="http://www.w3.org/2000/svg" xmlns:xlink="http://www.w3.org/1999/xlink" x="0px" y="0px"
	 viewBox="0 0 196 34" style="enable-background:new 0 0 196 34;" xml:space="preserve">
<style type="text/css">
	.st0{fill:#FFFFFF;}
</style>
<path class="st0" d="M13.9,8c3.3,0,5.7,0.7,7.2,2c1.6,1.3,2.3,3,2.3,5.2c0,0.7-0.1,1.5-0.3,2.4c-0.5,2-1.3,3.7-2.6,5.2
	c-1.2,1.5-2.8,2.6-4.6,3.4c-1.8,0.8-3.8,1.2-5.9,1.2c-3.3,0-5.8-0.7-7.4-2C1.2,24,0.4,22.2,0.4,20c0-0.7,0.1-1.6,0.3-2.5
	c0.5-1.9,1.3-3.5,2.6-5C4.5,11.1,6.1,10,8,9.2C9.8,8.4,11.8,8,13.9,8z M13.8,11.2c-0.5,0-1,0.5-1.6,1.4c-0.6,0.9-1.2,2.6-2,5.1
	c-0.8,2.5-1.2,4.2-1.2,5.3c0,0.5,0.1,0.9,0.3,1.1c0.2,0.2,0.4,0.3,0.7,0.3c0.5,0,1-0.4,1.5-1.3c0.6-0.9,1.2-2.7,2.1-5.3
	c0.7-2.3,1.1-4,1.1-5.1c0-0.5-0.1-0.9-0.3-1C14.3,11.3,14.1,11.2,13.8,11.2z"/>
<path class="st0" d="M45,22c0,0.1-0.1,0.2-0.1,0.4c0,0.2,0,0.3,0.1,0.4c0.1,0.1,0.2,0.1,0.4,0.1c0.3,0,0.5-0.1,0.7-0.4
	c0.2-0.3,0.4-0.4,0.4-0.4c0.1,0,0.2,0.1,0.3,0.3c0.1,0.1,0.1,0.3,0.1,0.5c0,0.7-0.2,1.4-0.7,2.1c-0.5,0.6-1.2,1.2-2.1,1.6
	c-0.9,0.4-2,0.6-3.3,0.6c-1.6,0-2.8-0.4-3.8-1.1c-0.9-0.7-1.4-1.7-1.4-3c0-0.9,0.2-1.9,0.6-3l2-5.2c0.1-0.3,0.2-0.6,0.2-0.8
	c0-0.3-0.1-0.6-0.3-0.7c-0.2-0.2-0.4-0.3-0.7-0.3c-0.5,0-0.9,0.2-1.4,0.6c-0.5,0.4-0.8,1.1-1.1,2v-0.1l-2.3,7.3
	c-0.1,0.3-0.1,0.5-0.1,0.8c0,0.3,0.1,0.6,0.2,0.8c0.1,0.2,0.3,0.3,0.5,0.5c0.2,0.2,0.3,0.3,0.4,0.4c0.1,0.1,0.1,0.2,0,0.4
	c-0.1,0.3-0.4,0.5-0.7,0.7c-0.4,0.1-0.9,0.2-1.7,0.2H23c-0.6,0-1.1-0.1-1.4-0.3c-0.3-0.2-0.4-0.5-0.3-0.8c0.1-0.3,0.3-0.5,0.8-0.8
	c0.4-0.2,0.7-0.4,0.9-0.7c0.2-0.3,0.4-0.7,0.6-1.3l5.5-18c0.1-0.2,0.1-0.4,0.1-0.5c0-0.3-0.1-0.5-0.2-0.6c-0.1-0.2-0.3-0.3-0.5-0.5
	C28.2,3.3,28,3.2,27.9,3c-0.1-0.1-0.1-0.3,0-0.6c0.1-0.6,0.9-1,2.3-1.4c1.4-0.4,2.8-0.6,4.3-0.6c1.4,0,2.4,0.3,3.1,0.8
	c0.7,0.5,1,1.2,1,2.2c0,0.5-0.1,1-0.3,1.5l-1.9,6.3c0.9-1.2,1.9-2.1,3-2.6C40.3,8.2,41.4,8,42.6,8c1.5,0,2.6,0.4,3.5,1.3
	c0.9,0.9,1.4,2,1.4,3.5c0,0.7-0.1,1.5-0.4,2.2L45,22z"/>
<path class="st0" d="M82.7,22c0,0.1-0.1,0.2-0.1,0.4c0,0.2,0,0.3,0.1,0.4C82.8,23,83,23,83.1,23c0.3,0,0.5-0.1,0.7-0.4
	c0.2-0.3,0.4-0.4,0.4-0.4c0.1,0,0.2,0.1,0.3,0.3c0.1,0.1,0.1,0.3,0.1,0.5c0,0.7-0.2,1.4-0.7,2.1c-0.5,0.6-1.2,1.2-2.1,1.6
	c-0.9,0.4-2,0.6-3.3,0.6c-1.6,0-2.8-0.4-3.8-1.1c-0.9-0.7-1.4-1.7-1.4-3c0-0.9,0.2-1.9,0.6-3l2-5.2c0.1-0.3,0.2-0.6,0.2-0.8
	c0-0.3-0.1-0.6-0.3-0.7c-0.2-0.2-0.4-0.3-0.7-0.3c-0.4,0-0.8,0.2-1.3,0.5s-0.8,0.9-1.2,1.7l-2,6.4c0,0.1-0.1,0.2-0.1,0.4
	c0,0.2,0,0.3,0.1,0.4c0.1,0.1,0.2,0.1,0.4,0.1c0.3,0,0.5-0.1,0.7-0.4c0.2-0.3,0.4-0.4,0.4-0.4c0.1,0,0.2,0.1,0.3,0.3
	c0.1,0.1,0.1,0.3,0.1,0.5c0,0.7-0.2,1.4-0.7,2.1c-0.5,0.6-1.2,1.2-2.1,1.6c-0.9,0.4-2,0.6-3.3,0.6c-1.6,0-2.8-0.4-3.8-1.1
	c-0.9-0.7-1.4-1.7-1.4-3c0-0.9,0.2-1.9,0.6-3l2-5.2c0.1-0.3,0.2-0.6,0.2-0.8c0-0.3-0.1-0.6-0.3-0.7c-0.2-0.2-0.4-0.3-0.7-0.3
	c-0.4,0-0.8,0.2-1.3,0.5c-0.4,0.3-0.8,0.9-1.1,1.7l-2.4,7.7c-0.1,0.3-0.1,0.5-0.1,0.8c0,0.3,0.1,0.5,0.2,0.7
	c0.1,0.2,0.3,0.3,0.5,0.5c0.2,0.1,0.3,0.3,0.4,0.4c0.1,0.1,0.1,0.3,0,0.4c-0.1,0.3-0.3,0.5-0.7,0.7c-0.4,0.1-0.9,0.2-1.7,0.2h-8.2
	c-0.6,0-1.1-0.1-1.3-0.3c-0.3-0.2-0.4-0.5-0.3-0.8c0.1-0.3,0.3-0.5,0.8-0.8c0.4-0.2,0.7-0.4,0.9-0.7c0.2-0.3,0.4-0.7,0.6-1.3
	l3.2-10.4c0-0.1,0.1-0.3,0.1-0.5c0-0.3-0.1-0.5-0.2-0.6c-0.1-0.1-0.3-0.3-0.5-0.5c-0.2-0.2-0.4-0.4-0.5-0.5s-0.1-0.3,0-0.6
	c0.1-0.6,0.9-1,2.3-1.4C55,8.2,56.4,8,57.9,8c1.2,0,2.1,0.3,2.8,1c0.7,0.6,1,1.5,1,2.7c1-1.4,2-2.3,3.1-2.8C65.9,8.2,67.1,8,68.4,8
	c1.4,0,2.5,0.4,3.4,1.2c0.9,0.8,1.4,1.8,1.5,3.1c1-1.6,2.1-2.8,3.3-3.4c1.2-0.6,2.5-1,3.9-1c1.5,0,2.6,0.4,3.5,1.3
	c0.9,0.9,1.4,2,1.4,3.5c0,0.7-0.1,1.5-0.4,2.2L82.7,22z"/>
<path class="st0" d="M104.9,8c1.1,0,1.9,0.4,2.5,1.3c0.6,0.8,1,2,1,3.5c0,1.3-0.2,2.6-0.7,4.1c-0.9,3-2.3,5.7-4.3,8.4
	c-1.9,2.6-4.2,4.7-6.7,6.3c-2.5,1.6-5,2.4-7.6,2.4c-1.2,0-2.3-0.2-3.2-0.6c-0.9-0.4-1.6-1-2-1.7c-0.5-0.7-0.7-1.5-0.7-2.3
	c0-0.4,0.1-0.8,0.2-1.2c0.2-0.7,0.6-1.2,1.1-1.5c0.5-0.4,1.1-0.5,1.8-0.5c1.1,0,2,0.4,2.7,1.1c0.7,0.8,1.2,1.8,1.4,3.1
	c1.5-0.1,3-0.7,4.2-2c-1.2-0.2-2.1-0.6-2.7-1.2c-0.6-0.6-1-1.6-1.2-2.9l-1.4-8.8c-0.1-0.5-0.2-0.8-0.3-0.9c-0.1-0.2-0.3-0.3-0.5-0.3
	c-0.2,0-0.4,0.1-0.6,0.3c-0.2,0.2-0.4,0.3-0.5,0.3c-0.2,0-0.3-0.2-0.3-0.6c0-0.3,0.1-0.7,0.2-1.1c0.4-1.4,1.2-2.5,2.4-3.5
	c1.2-1,2.5-1.4,4.1-1.4c1.5,0,2.7,0.5,3.4,1.4c0.7,0.9,1.2,2.3,1.4,4.2l1.1,7.9c0.1,0.6,0.3,0.9,0.6,0.9c0.4,0,0.9-0.4,1.5-1.2
	c0.6-0.8,1.1-1.9,1.7-3.3c-0.7-0.6-1.3-1.4-1.7-2.2c-0.4-0.8-0.6-1.7-0.6-2.7c0-0.7,0.1-1.4,0.3-2c0.3-1,0.7-1.7,1.3-2.2
	C103.5,8.2,104.2,8,104.9,8z"/>
<path class="st0" d="M122.9,0.4c2.6,0,4.5,0.4,5.8,1.2c1.3,0.8,1.9,1.7,1.9,2.8c0,0.9-0.4,1.6-1.2,2.1c-0.7,0.5-1.7,0.7-3,0.7
	c-1.1,0-2-0.3-2.6-0.8s-0.9-1.2-0.9-2.1c0-0.5,0.2-1,0.5-1.6c-0.7,0-1.3,0.2-1.8,0.5c-0.5,0.3-0.9,0.9-1.1,1.8
	c-0.1,0.5-0.2,1-0.2,1.5c0,0.6,0.1,1,0.3,1.4c0.2,0.3,0.5,0.5,0.9,0.5h2.1c1.2,0,1.9,0.4,1.9,1.2c0,0.1,0,0.2-0.1,0.4
	c-0.1,0.5-0.4,0.9-0.9,1.2c-0.4,0.3-1.1,0.4-2,0.4h-1.1l-3.6,11.7c-0.1,0.3-0.1,0.5-0.1,0.8c0,0.3,0.1,0.6,0.2,0.8
	c0.1,0.2,0.3,0.3,0.5,0.5c0.2,0.2,0.3,0.3,0.4,0.4c0.1,0.1,0.1,0.2,0,0.4c-0.1,0.3-0.4,0.5-0.7,0.7c-0.4,0.1-0.9,0.2-1.7,0.2h-8.2
	c-0.6,0-1.1-0.1-1.4-0.3c-0.3-0.2-0.4-0.5-0.3-0.8c0.1-0.3,0.3-0.5,0.8-0.8c0.4-0.2,0.7-0.4,0.9-0.7c0.2-0.3,0.4-0.7,0.6-1.3
	l2.8-9.2c0.1-0.4,0.2-0.7,0.2-1.1c0-0.5-0.1-0.9-0.3-1.1c-0.2-0.3-0.5-0.6-0.9-0.9c-0.3-0.2-0.5-0.4-0.6-0.5
	c-0.1-0.2-0.2-0.4-0.2-0.6c0-0.5,0.1-0.8,0.5-1c0.4-0.2,1-0.3,2-0.3h0.9c-0.2-0.6-0.3-1.2-0.3-1.8s0.1-1.2,0.3-1.9
	c0.5-1.2,1.4-2.3,2.9-3.1C117.7,0.8,119.9,0.4,122.9,0.4z"/>
<path class="st0" d="M137.1,8c3.3,0,5.7,0.7,7.2,2c1.6,1.3,2.3,3,2.3,5.2c0,0.7-0.1,1.5-0.3,2.4c-0.5,2-1.3,3.7-2.6,5.2
	c-1.2,1.5-2.8,2.6-4.6,3.4c-1.8,0.8-3.8,1.2-5.9,1.2c-3.3,0-5.8-0.7-7.4-2c-1.6-1.3-2.4-3.1-2.4-5.3c0-0.7,0.1-1.6,0.3-2.5
	c0.5-1.9,1.3-3.5,2.6-5c1.3-1.5,2.9-2.6,4.7-3.4C133,8.4,135,8,137.1,8z M137,11.2c-0.5,0-1,0.5-1.6,1.4c-0.6,0.9-1.2,2.6-2,5.1
	c-0.8,2.5-1.2,4.2-1.2,5.3c0,0.5,0.1,0.9,0.3,1.1c0.2,0.2,0.4,0.3,0.7,0.3c0.5,0,1-0.4,1.5-1.3c0.6-0.9,1.2-2.7,2.1-5.3
	c0.7-2.3,1.1-4,1.1-5.1c0-0.5-0.1-0.9-0.3-1C137.5,11.3,137.3,11.2,137,11.2z"/>
<path class="st0" d="M160.7,8c3.3,0,5.7,0.7,7.2,2c1.6,1.3,2.3,3,2.3,5.2c0,0.7-0.1,1.5-0.3,2.4c-0.5,2-1.3,3.7-2.6,5.2
	c-1.2,1.5-2.8,2.6-4.6,3.4c-1.8,0.8-3.8,1.2-5.9,1.2c-3.3,0-5.8-0.7-7.4-2c-1.6-1.3-2.4-3.1-2.4-5.3c0-0.7,0.1-1.6,0.3-2.5
	c0.5-1.9,1.3-3.5,2.6-5c1.3-1.5,2.9-2.6,4.7-3.4C156.6,8.4,158.6,8,160.7,8z M160.6,11.2c-0.5,0-1,0.5-1.6,1.4
	c-0.6,0.9-1.2,2.6-2,5.1c-0.8,2.5-1.2,4.2-1.2,5.3c0,0.5,0.1,0.9,0.3,1.1c0.2,0.2,0.4,0.3,0.7,0.3c0.5,0,1-0.4,1.5-1.3
	c0.6-0.9,1.2-2.7,2.1-5.3c0.7-2.3,1.1-4,1.1-5.1c0-0.5-0.1-0.9-0.3-1C161.1,11.3,160.9,11.2,160.6,11.2z"/>
<path class="st0" d="M190.5,21.8c0,0.2-0.1,0.3-0.1,0.4c0,0.2,0,0.3,0.1,0.4c0.1,0.1,0.2,0.1,0.4,0.1c0.3,0,0.5-0.1,0.7-0.4
	c0.2-0.3,0.4-0.4,0.4-0.4c0.1,0,0.2,0.1,0.3,0.3c0.1,0.2,0.1,0.4,0.1,0.6c0,0.6-0.2,1.3-0.8,2c-0.5,0.7-1.2,1.2-2.1,1.7
	c-0.9,0.4-1.8,0.6-2.8,0.6c-1.2,0-2.2-0.2-3.1-0.7s-1.5-1.1-1.8-1.8c-0.6,0.8-1.4,1.5-2.2,1.9c-0.8,0.4-1.7,0.6-2.7,0.6
	c-1.1,0-2.1-0.3-3.1-0.8c-0.9-0.6-1.7-1.3-2.3-2.3c-0.6-1-0.8-2.2-0.8-3.5c0-2.2,0.4-4.2,1.2-6.2c0.8-1.9,2-3.5,3.5-4.7
	c1.5-1.2,3.2-1.8,5.1-1.8c1,0,1.9,0.1,2.6,0.4c0.7,0.2,1.4,0.6,2,1.1l1.2-4c0.1-0.2,0.1-0.4,0.1-0.5c0-0.3-0.1-0.5-0.2-0.6
	c-0.1-0.2-0.3-0.3-0.5-0.5c-0.2-0.2-0.4-0.4-0.5-0.5c-0.1-0.1-0.1-0.3,0-0.6c0.1-0.6,0.9-1,2.3-1.4c1.4-0.4,2.8-0.6,4.3-0.6
	c1.4,0,2.4,0.3,3.1,0.8c0.7,0.5,1,1.2,1,2.2c0,0.5-0.1,1-0.3,1.5L190.5,21.8z M184.5,11.7c-0.4-0.3-0.8-0.5-1.3-0.5
	c-0.7,0-1.4,0.5-2.1,1.5s-1.2,2.3-1.6,3.7c-0.4,1.5-0.6,2.8-0.6,4c0,1.3,0.4,2,1.3,2c0.3,0,0.6-0.1,0.8-0.4c0.2-0.3,0.4-0.7,0.6-1.3
	L184.5,11.7z"/>
</svg>
